<?xml version="1.0" encoding="utf-8"?><!--Generator: Adobe Illustrator 15.0.0, SVG Export Plug-In . SVG Version: 6.00 Build 0)--><!DOCTYPE svg PUBLIC "-//W3C//DTD SVG 1.1//EN" "http://www.w3.org/Graphics/SVG/1.1/DTD/svg11.dtd"><svg xmlns="http://www.w3.org/2000/svg" width="107" height="65"><g fill="#363636"><path d="M98.97 4.07a10.4 10.4 0 0 1 1.2 4.82V30c0 4.62-3.09 8.53-7.24 9.9-1.32 4-3.78 7.86-8.05 10.44-8.68 5.23-31.12 4.83-31.2 4.83-.08 0-22.51.4-31.19-4.83a18.73 18.73 0 0 1-8.04-10.28 10.5 10.5 0 0 1-7.76-10.06V8.9c0-1.68.43-3.28 1.14-4.69C4.17 5.1 0 6.92 0 10.43v29.99c0 10.25 11.84 24.43 53.66 24.43 41.82 0 53.65-14.18 53.65-24.43V10.43c0-3.68-4.57-5.49-8.34-6.36z"/><path d="M20.56 38.46h65.52c5.57 0 10.08-4.51 10.08-10.08V9.94c0-5.57-4.51-10.08-10.08-10.08H20.56A10.08 10.08 0 0 0 10.5 9.94v18.44c0 5.57 4.5 10.08 10.07 10.08zm63.13-29a1.57 1.57 0 1 1 0 3.15 1.57 1.57 0 0 1 0-3.14zm0 4.05a1.57 1.57 0 1 1 0 3.13 1.57 1.57 0 0 1 0-3.13zm0 4.04a1.57 1.57 0 1 1 0 3.13 1.57 1.57 0 0 1 0-3.13zm0 3.82a1.57 1.57 0 1 1 0 3.14 1.57 1.57 0 0 1 0-3.14zm0 4.04a1.57 1.57 0 1 1 0 3.14 1.57 1.57 0 0 1 0-3.14zM79.66 9.47a1.57 1.57 0 1 1 0 3.13 1.57 1.57 0 0 1 0-3.13zm0 15.94a1.57 1.57 0 1 1 0 3.14 1.57 1.57 0 0 1 0-3.14zM75.62 9.47a1.57 1.57 0 1 1 0 3.14 1.57 1.57 0 0 1 0-3.14zm0 4.04a1.57 1.57 0 1 1 0 3.14 1.57 1.57 0 0 1 0-3.14zm0 4.04a1.57 1.57 0 1 1 0 3.13 1.57 1.57 0 0 1 0-3.13zm0 3.82a1.57 1.57 0 1 1 0 3.14 1.57 1.57 0 0 1 0-3.14zm0 4.04a1.57 1.57 0 1 1 0 3.14 1.57 1.57 0 0 1 0-3.14zM67.96 9.47a1.57 1.57 0 1 1 0 3.13 1.57 1.57 0 0 1 0-3.13zm0 8.08a1.57 1.57 0 1 1 0 3.13 1.57 1.57 0 0 1 0-3.13zm0 3.88a1.57 1.57 0 1 1 0 3.13 1.57 1.57 0 0 1 0-3.13zm0 3.98a1.57 1.57 0 1 1 0 3.14 1.57 1.57 0 0 1 0-3.14zM63.94 9.47a1.57 1.57 0 1 1 0 3.14 1.57 1.57 0 0 1 0-3.14zm0 8.08a1.57 1.57 0 1 1 0 3.13 1.57 1.57 0 0 1 0-3.13zm0 7.86a1.57 1.57 0 1 1 0 3.14 1.57 1.57 0 0 1 0-3.14zM59.89 9.47a1.57 1.57 0 1 1 0 3.14 1.57 1.57 0 0 1 0-3.14zm0 4.04a1.57 1.57 0 1 1 0 3.14 1.57 1.57 0 0 1 0-3.14zm0 4.04a1.57 1.57 0 1 1 0 3.14 1.57 1.57 0 0 1 0-3.14zm0 7.86a1.57 1.57 0 1 1 0 3.14 1.57 1.57 0 0 1 0-3.14zm-8.3-15.94a1.57 1.57 0 1 1 0 3.14 1.57 1.57 0 0 1 0-3.14zm0 4.04a1.57 1.57 0 1 1 0 3.13 1.57 1.57 0 0 1 0-3.13zm0 4.04a1.57 1.57 0 1 1 0 3.13 1.57 1.57 0 0 1 0-3.13zm0 3.88a1.57 1.57 0 1 1 .01 3.13 1.57 1.57 0 0 1 0-3.13zm0 3.98a1.57 1.57 0 1 1 0 3.14 1.57 1.57 0 0 1 0-3.14zm-4.03-11.9a1.57 1.57 0 1 1 0 3.13 1.57 1.57 0 0 1 0-3.13zm-8.5-.21a1.57 1.57 0 1 1 0 3.14 1.57 1.57 0 0 1 0-3.15zm0 4.03a1.57 1.57 0 1 1 0 3.14 1.57 1.57 0 0 1 0-3.14zm-4.04-8.07a1.57 1.57 0 1 1 0 3.13 1.57 1.57 0 0 1 0-3.13zm0 4.04a1.57 1.57 0 1 1 0 3.13 1.57 1.57 0 0 1 0-3.13zm0 4.03a1.57 1.57 0 1 1 0 3.14 1.57 1.57 0 0 1 0-3.14zm0 4.04a1.57 1.57 0 1 1 0 3.14 1.57 1.57 0 0 1 0-3.14zm-4.26-8.08a1.57 1.57 0 1 1 0 3.14 1.57 1.57 0 0 1 0-3.13zm0 4.04a1.57 1.57 0 1 1 0 3.14 1.57 1.57 0 0 1 0-3.14zm0 4.04a1.57 1.57 0 1 1 0 3.14 1.57 1.57 0 0 1 0-3.14zm0 4.04a1.57 1.57 0 1 1 0 3.14 1.57 1.57 0 0 1 0-3.14zM26.3 9.26a1.57 1.57 0 1 1 0 3.14 1.57 1.57 0 0 1 0-3.14zm0 4.04a1.57 1.57 0 1 1 0 3.14 1.57 1.57 0 0 1 0-3.15zm0 4.03a1.57 1.57 0 1 1 0 3.14 1.57 1.57 0 0 1 0-3.14zm0 4.04a1.57 1.57 0 1 1 0 3.15 1.57 1.57 0 0 1 0-3.15zm-4.04-8.08a1.57 1.57 0 1 1 0 3.15 1.57 1.57 0 0 1 0-3.15zm0 4.04a1.57 1.57 0 1 1 0 3.14 1.57 1.57 0 0 1 0-3.14z"/></g></svg>